<svg width="151" height="31" viewBox="0 0 151 31" fill="none" xmlns="http://www.w3.org/2000/svg">
<g clip-path="url(#clip0_8_73)">
<path d="M0.145386 24.1761L11.396 -0.0232491H13.178L24.4287 24.1425H22.5423L12.3399 1.98271H12.2002L2.03312 24.1774H0.146692L0.145386 24.1761Z" fill="url(#paint0_linear_8_73)"/>
<path d="M44.2734 6.12896V24.1748H42.5958V20.3024C42.0018 21.5812 41.0932 22.5499 39.9052 23.241C38.7172 23.9669 37.3204 24.313 35.712 24.313C33.336 24.313 31.4836 23.6556 30.1219 22.342C28.759 21.0283 28.0958 19.127 28.0958 16.6728V6.12896H29.8426V16.5346C29.8426 18.5742 30.3661 20.0958 31.4144 21.1678C32.4627 22.2399 33.93 22.7579 35.8517 22.7579C37.9131 22.7579 39.5201 22.1353 40.7433 20.8565C41.9313 19.5778 42.5253 17.8831 42.5253 15.7402V6.12896H44.2721H44.2734Z" fill="url(#paint1_linear_8_73)"/>
<path d="M60.7276 23.0343C60.2733 23.4489 59.7498 23.7602 59.0853 23.9682C58.4208 24.2097 57.7224 24.3143 56.9887 24.3143C55.4169 24.3143 54.1937 23.8648 53.3203 23.0007C52.4469 22.1366 52.0279 20.9612 52.0279 19.4047V7.61567H48.6741V6.12896H52.0279V2.18808H53.7746V6.12896H59.5749V7.61567H53.7746V19.2316C53.7746 20.407 54.054 21.306 54.648 21.8938C55.2067 22.5163 56.0448 22.8276 57.1636 22.8276C58.2824 22.8276 59.2602 22.4815 59.9939 21.8253L60.7276 23.0356V23.0343Z" fill="url(#paint2_linear_8_73)"/>
<path d="M79.9091 7.96183C81.2368 9.27546 81.9013 11.1768 81.9013 13.631V24.1748H80.1546V13.7692C80.1546 11.7296 79.6311 10.208 78.6167 9.13596C77.5684 8.06388 76.101 7.54592 74.2486 7.54592C72.1167 7.54592 70.4052 8.1685 69.182 9.44725C67.9587 10.726 67.3295 12.4207 67.3295 14.5635V24.1748H65.5828V-1.47637H67.3295V9.89804C67.9587 8.65417 68.9013 7.68542 70.1245 6.99437C71.3478 6.33692 72.8151 5.99204 74.4914 5.99204C76.7629 5.99204 78.5789 6.6495 79.9078 7.96312L79.9091 7.96183Z" fill="url(#paint3_linear_8_73)"/>
<path d="M105.519 6.12896V22.2386C105.519 25.2469 104.785 27.4595 103.318 28.8765C101.85 30.2935 99.6492 31.0194 96.6793 31.0194C95.0017 31.0194 93.4299 30.7778 91.9273 30.2586C90.4247 29.7406 89.2367 29.0483 88.3281 28.1493L89.272 26.8357C90.1806 27.6649 91.2641 28.3224 92.5566 28.7719C93.849 29.2214 95.2119 29.4629 96.644 29.4629C99.0553 29.4629 100.872 28.8752 102.025 27.7347C103.178 26.5941 103.772 24.831 103.772 22.4453V19.4034C103.038 20.717 101.99 21.7194 100.662 22.4453C99.3346 23.1712 97.832 23.5174 96.1897 23.5174C94.5474 23.5174 92.9404 23.1376 91.5774 22.3768C90.1793 21.6509 89.097 20.6137 88.2929 19.2652C87.4887 17.9167 87.1049 16.43 87.1049 14.7366C87.1049 13.0432 87.4887 11.5565 88.2929 10.208C89.097 8.85954 90.1793 7.82233 91.5774 7.09642C92.9404 6.3705 94.4769 5.99075 96.1897 5.99075C97.9025 5.99075 99.3699 6.37179 100.731 7.09642C102.094 7.82233 103.107 8.85954 103.841 10.208V6.12896H105.519V6.12896ZM100.173 21.0296C101.325 20.4419 102.199 19.5778 102.863 18.4721C103.493 17.4 103.807 16.1562 103.807 14.7379C103.807 13.3197 103.493 12.0758 102.863 11.0037C102.199 9.93163 101.325 9.0675 100.173 8.44621C99.02 7.8585 97.7615 7.54721 96.3294 7.54721C94.8973 7.54721 93.6388 7.8585 92.5213 8.44621C91.3686 9.06879 90.4939 9.93292 89.866 11.0037C89.2015 12.0758 88.8882 13.3197 88.8882 14.7379C88.8882 16.1562 89.2028 17.4 89.866 18.4721C90.4952 19.5778 91.3686 20.4419 92.5213 21.0296C93.6388 21.6522 94.8973 21.9635 96.3294 21.9635C97.7615 21.9635 99.02 21.6522 100.173 21.0296Z" fill="url(#paint4_linear_8_73)"/>
<path d="M128.332 15.5672H112.644C112.679 16.9841 113.063 18.2293 113.728 19.3014C114.392 20.407 115.335 21.2725 116.489 21.8602C117.641 22.4479 118.934 22.7592 120.367 22.7592C121.555 22.7592 122.673 22.5512 123.687 22.1017C124.7 21.6871 125.54 21.0645 126.203 20.2353L127.216 21.3758C126.413 22.3097 125.434 23.0356 124.246 23.5535C123.023 24.0715 121.73 24.3143 120.332 24.3143C118.515 24.3143 116.908 23.9346 115.476 23.1389C114.044 22.3433 112.96 21.2725 112.156 19.8891C111.353 18.5057 110.933 16.9157 110.933 15.1525C110.933 13.3894 111.316 11.8343 112.085 10.416C112.819 9.03392 113.867 7.96184 115.195 7.16617C116.523 6.37179 118.025 5.99075 119.668 5.99075C121.31 5.99075 122.813 6.37179 124.14 7.13129C125.433 7.92696 126.481 8.99775 127.25 10.3811C127.984 11.7645 128.367 13.3197 128.367 15.0828L128.332 15.5672V15.5672ZM116.208 8.34158C115.195 8.92929 114.356 9.72496 113.762 10.7273C113.132 11.7645 112.784 12.9399 112.678 14.2187H126.655C126.584 12.9399 126.235 11.7645 125.606 10.7622C124.977 9.75983 124.139 8.96417 123.126 8.37646C122.113 7.78875 120.96 7.51233 119.666 7.51233C118.373 7.51233 117.22 7.78875 116.207 8.34158H116.208Z" fill="url(#paint5_linear_8_73)"/>
<path d="M148.106 7.96184C149.434 9.27546 150.098 11.1768 150.098 13.631V24.1748H148.352V13.7692C148.352 11.7296 147.828 10.208 146.814 9.13596C145.765 8.06388 144.298 7.54592 142.446 7.54592C140.314 7.54592 138.602 8.1685 137.379 9.44725C136.156 10.726 135.527 12.4207 135.527 14.5635V24.1748H133.78V6.12896H135.457V10.035C136.087 8.75621 137.029 7.78746 138.288 7.06154C139.511 6.33563 140.978 5.98946 142.69 5.98946C144.961 5.98946 146.777 6.64692 148.106 7.96054V7.96184Z" fill="url(#paint6_linear_8_73)"/>
</g>
<defs>
<linearGradient id="paint0_linear_8_73" x1="0.145386" y1="12.0758" x2="24.43" y2="12.0758" gradientUnits="userSpaceOnUse">
<stop stop-color="#CCE0F4"/>
<stop offset="0.05" stop-color="#C2DCF2"/>
<stop offset="0.14" stop-color="#A9D2EE"/>
<stop offset="0.25" stop-color="#7FC2E7"/>
<stop offset="0.37" stop-color="#46ABDD"/>
<stop offset="0.46" stop-color="#1E9CD7"/>
<stop offset="0.77" stop-color="#0379C1"/>
<stop offset="0.87" stop-color="#0075BE"/>
<stop offset="0.99" stop-color="#005B97"/>
</linearGradient>
<linearGradient id="paint1_linear_8_73" x1="28.0958" y1="15.2223" x2="44.2734" y2="15.2223" gradientUnits="userSpaceOnUse">
<stop stop-color="#CCE0F4"/>
<stop offset="0.05" stop-color="#C2DCF2"/>
<stop offset="0.14" stop-color="#A9D2EE"/>
<stop offset="0.25" stop-color="#7FC2E7"/>
<stop offset="0.37" stop-color="#46ABDD"/>
<stop offset="0.46" stop-color="#1E9CD7"/>
<stop offset="0.77" stop-color="#0379C1"/>
<stop offset="0.87" stop-color="#0075BE"/>
<stop offset="0.99" stop-color="#005B97"/>
</linearGradient>
<linearGradient id="paint2_linear_8_73" x1="48.6728" y1="13.2512" x2="60.7276" y2="13.2512" gradientUnits="userSpaceOnUse">
<stop stop-color="#CCE0F4"/>
<stop offset="0.05" stop-color="#C2DCF2"/>
<stop offset="0.14" stop-color="#A9D2EE"/>
<stop offset="0.25" stop-color="#7FC2E7"/>
<stop offset="0.37" stop-color="#46ABDD"/>
<stop offset="0.46" stop-color="#1E9CD7"/>
<stop offset="0.77" stop-color="#0379C1"/>
<stop offset="0.87" stop-color="#0075BE"/>
<stop offset="0.99" stop-color="#005B97"/>
</linearGradient>
<linearGradient id="paint3_linear_8_73" x1="65.5841" y1="11.3499" x2="81.9013" y2="11.3499" gradientUnits="userSpaceOnUse">
<stop stop-color="#CCE0F4"/>
<stop offset="0.05" stop-color="#C2DCF2"/>
<stop offset="0.14" stop-color="#A9D2EE"/>
<stop offset="0.25" stop-color="#7FC2E7"/>
<stop offset="0.37" stop-color="#46ABDD"/>
<stop offset="0.46" stop-color="#1E9CD7"/>
<stop offset="0.77" stop-color="#0379C1"/>
<stop offset="0.87" stop-color="#0075BE"/>
<stop offset="0.99" stop-color="#005B97"/>
</linearGradient>
<linearGradient id="paint4_linear_8_73" x1="87.1049" y1="18.5057" x2="105.519" y2="18.5057" gradientUnits="userSpaceOnUse">
<stop stop-color="#CCE0F4"/>
<stop offset="0.05" stop-color="#C2DCF2"/>
<stop offset="0.14" stop-color="#A9D2EE"/>
<stop offset="0.25" stop-color="#7FC2E7"/>
<stop offset="0.37" stop-color="#46ABDD"/>
<stop offset="0.46" stop-color="#1E9CD7"/>
<stop offset="0.77" stop-color="#0379C1"/>
<stop offset="0.87" stop-color="#0075BE"/>
<stop offset="0.99" stop-color="#005B97"/>
</linearGradient>
<linearGradient id="paint5_linear_8_73" x1="110.931" y1="15.1525" x2="128.367" y2="15.1525" gradientUnits="userSpaceOnUse">
<stop stop-color="#CCE0F4"/>
<stop offset="0.05" stop-color="#C2DCF2"/>
<stop offset="0.14" stop-color="#A9D2EE"/>
<stop offset="0.25" stop-color="#7FC2E7"/>
<stop offset="0.37" stop-color="#46ABDD"/>
<stop offset="0.46" stop-color="#1E9CD7"/>
<stop offset="0.77" stop-color="#0379C1"/>
<stop offset="0.87" stop-color="#0075BE"/>
<stop offset="0.99" stop-color="#005B97"/>
</linearGradient>
<linearGradient id="paint6_linear_8_73" x1="133.781" y1="15.0828" x2="150.098" y2="15.0828" gradientUnits="userSpaceOnUse">
<stop stop-color="#CCE0F4"/>
<stop offset="0.05" stop-color="#C2DCF2"/>
<stop offset="0.14" stop-color="#A9D2EE"/>
<stop offset="0.25" stop-color="#7FC2E7"/>
<stop offset="0.37" stop-color="#46ABDD"/>
<stop offset="0.46" stop-color="#1E9CD7"/>
<stop offset="0.77" stop-color="#0379C1"/>
<stop offset="0.87" stop-color="#0075BE"/>
<stop offset="0.99" stop-color="#005B97"/>
</linearGradient>
<clipPath id="clip0_8_73">
<rect width="150" height="31" fill="white" transform="translate(0.0983887)"/>
</clipPath>
</defs>
</svg>
