<svg width="46" height="49" viewBox="0 0 46 49" fill="none" xmlns="http://www.w3.org/2000/svg">
<path d="M45.342 25.5933H4.87474C4.96567 29.2928 5.95573 32.5438 7.66978 35.3429C9.38384 38.2297 11.8152 40.4892 14.792 42.0236C17.7655 43.5581 21.0994 44.3708 24.7969 44.3708C27.8613 44.3708 30.7438 43.8279 33.3604 42.6543C35.9736 41.5717 38.1389 39.9462 39.8496 37.7812L42.4627 40.759C40.3917 43.1972 37.8661 45.0925 34.8017 46.4449C31.6463 47.7972 28.3125 48.4312 24.7059 48.4312C20.0184 48.4312 15.873 47.4397 12.1788 45.3623C8.4847 43.2849 5.68968 40.4892 3.6153 36.8774C1.54429 33.2655 0.459961 29.1141 0.459961 24.5108C0.459961 19.9075 1.45001 15.8471 3.43347 12.1442C5.326 8.53576 8.0301 5.73667 11.4548 3.65928C14.8796 1.58525 18.7556 0.590393 22.9919 0.590393C27.2282 0.590393 31.1042 1.58525 34.5289 3.56821C37.8628 5.64561 40.5668 8.44133 42.5503 12.0532C44.4428 15.665 45.4329 19.7254 45.4329 24.3287L45.342 25.5933V25.5933ZM14.068 6.72815C11.4548 8.26259 9.28953 10.34 7.75732 12.957C6.13419 15.665 5.23507 18.7339 4.9623 22.0725H41.0147C40.8329 18.7339 39.9338 15.665 38.3106 13.048C36.6875 10.431 34.5256 8.35365 31.9124 6.81921C29.2992 5.28477 26.3257 4.56307 22.9885 4.56307C19.6513 4.56307 16.6778 5.28476 14.0647 6.72815H14.068Z" fill="url(#paint0_linear_13_109)"/>
<defs>
<linearGradient id="paint0_linear_13_109" x1="0.456593" y1="24.5108" x2="45.4329" y2="24.5108" gradientUnits="userSpaceOnUse">
<stop stop-color="#CCE0F4"/>
<stop offset="0.05" stop-color="#C2DCF2"/>
<stop offset="0.14" stop-color="#A9D2EE"/>
<stop offset="0.25" stop-color="#7FC2E7"/>
<stop offset="0.37" stop-color="#46ABDD"/>
<stop offset="0.46" stop-color="#1E9CD7"/>
<stop offset="0.77" stop-color="#0379C1"/>
<stop offset="0.87" stop-color="#0075BE"/>
<stop offset="0.99" stop-color="#005B97"/>
</linearGradient>
</defs>
</svg>
