<svg width="49" height="66" viewBox="0 0 49 66" fill="none" xmlns="http://www.w3.org/2000/svg">
<path d="M48.4951 0.951242V43.0118C48.4951 50.8661 46.6026 56.643 42.8175 60.3425C39.0325 64.042 33.3549 65.9373 25.6938 65.9373C21.3666 65.9373 17.3121 65.3067 13.4361 63.951C9.56013 62.5986 6.49572 60.791 4.15194 58.4438L6.58664 55.0141C8.93042 57.1792 11.7254 58.8957 15.0592 60.0693C18.3931 61.2429 21.9087 61.8736 25.6029 61.8736C31.8226 61.8736 36.5102 60.3391 39.4837 57.3613C42.4572 54.3835 43.9894 49.7802 43.9894 43.5513V35.6093C42.0969 39.0391 39.3928 41.656 35.968 43.5513C32.5433 45.4466 28.6673 46.3504 24.431 46.3504C20.1947 46.3504 16.0493 45.3589 12.5336 43.3726C8.92704 41.4773 6.13539 38.7693 4.06102 35.2485C1.98664 31.7277 0.996582 27.8461 0.996582 23.4249C0.996582 19.0037 1.98664 15.122 4.06102 11.6013C6.13539 8.08048 8.92704 5.37245 12.5336 3.47716C16.0493 1.58188 20.0128 0.590393 24.431 0.590393C28.8492 0.590393 32.6342 1.58525 36.1465 3.47716C39.6622 5.37245 42.2754 8.08048 44.1679 11.6013V0.951242H48.4951V0.951242ZM34.7052 39.8552C37.6787 38.3208 39.9316 36.0646 41.6456 33.1779C43.2688 30.3788 44.0803 27.1311 44.0803 23.4283C44.0803 19.7254 43.2688 16.4777 41.6456 13.6787C39.9316 10.8796 37.6787 8.62344 34.7052 7.00132C31.7317 5.46688 28.4855 4.65413 24.7913 4.65413C21.0972 4.65413 17.8509 5.46688 14.9683 7.00132C11.9948 8.62682 9.73861 10.8829 8.11884 13.6787C6.40479 16.4777 5.59659 19.7254 5.59659 23.4283C5.59659 27.1311 6.40816 30.3788 8.11884 33.1779C9.74198 36.0646 11.9948 38.3208 14.9683 39.8552C17.8509 41.4807 21.0972 42.2934 24.7913 42.2934C28.4855 42.2934 31.7317 41.4807 34.7052 39.8552Z" fill="url(#paint0_linear_13_108)"/>
<defs>
<linearGradient id="paint0_linear_13_108" x1="0.996582" y1="33.2655" x2="48.4951" y2="33.2655" gradientUnits="userSpaceOnUse">
<stop stop-color="#CCE0F4"/>
<stop offset="0.05" stop-color="#C2DCF2"/>
<stop offset="0.14" stop-color="#A9D2EE"/>
<stop offset="0.25" stop-color="#7FC2E7"/>
<stop offset="0.37" stop-color="#46ABDD"/>
<stop offset="0.46" stop-color="#1E9CD7"/>
<stop offset="0.77" stop-color="#0379C1"/>
<stop offset="0.87" stop-color="#0075BE"/>
<stop offset="0.99" stop-color="#005B97"/>
</linearGradient>
</defs>
</svg>
