<svg width="27" height="28" viewBox="0 0 27 28" fill="none" xmlns="http://www.w3.org/2000/svg">
<path fill-rule="evenodd" clip-rule="evenodd" d="M20.9013 3.18099V4.94238H23.7442H23.7466V4.94694C24.6445 4.94922 25.4584 5.30469 26.0461 5.88119C26.6292 6.45313 26.993 7.24382 26.9953 8.11882H27V8.12337V24.819V24.8213H26.9953C26.993 25.6963 26.6292 26.4915 26.0391 27.068C25.4537 27.6377 24.6445 27.9932 23.7489 27.9954V28H23.7442H9.3545H9.35216V27.9954C8.4566 27.9932 7.64032 27.6377 7.0526 27.0612C6.46955 26.4893 6.10573 25.6986 6.1034 24.8236H6.09873V24.819V21.0798H3.25577H3.25343V21.0752C2.35786 21.0729 1.54159 20.7174 0.953874 20.141C0.370822 19.569 0.00699663 18.7783 0.00466442 17.9033H0V17.8988V3.18099V3.17871H0.00466442C0.00699663 2.30143 0.373154 1.50618 0.960871 0.931966C1.54626 0.362305 2.35553 0.00683594 3.2511 0.00455729V0H3.25577H17.6455H17.6478V0.00455729C18.5457 0.00683594 19.3597 0.362305 19.9474 0.938802C20.5304 1.51074 20.8943 2.30143 20.8966 3.17643H20.9013V3.18099V3.18099ZM18.4338 4.94238V3.18099V3.17643H18.4385C18.4385 2.96908 18.3475 2.77767 18.2029 2.63639C18.0606 2.4974 17.8624 2.40853 17.6502 2.40853V2.41309H17.6478H3.2581H3.25343V2.40853C3.0412 2.40853 2.8453 2.4974 2.7007 2.63867C2.55843 2.77767 2.46748 2.97135 2.46748 3.17871H2.47214V3.18099V17.8988V17.9033H2.46748C2.46748 18.1107 2.55843 18.3021 2.70303 18.4434C2.8453 18.5824 3.04353 18.6712 3.25577 18.6712V18.6667H3.2581H6.10106V8.12337V8.12109H6.10573C6.10806 7.24382 6.47422 6.44857 7.06193 5.87435C7.64732 5.30469 8.4566 4.94922 9.35216 4.94694V4.94238H9.35683H18.4338ZM24.5302 24.819V8.12337V8.11882H24.5349C24.5349 7.91146 24.4439 7.72005 24.2993 7.57878C24.157 7.43978 23.9588 7.35091 23.7466 7.35091V7.35547H23.7442H9.3545H9.34983V7.35091C9.1376 7.35091 8.9417 7.43978 8.7971 7.58106C8.65483 7.72005 8.56388 7.91374 8.56388 8.12109H8.56854V8.12337V24.819V24.8236H8.56388C8.56388 25.0309 8.65483 25.2223 8.79943 25.3636C8.9417 25.5026 9.13993 25.5915 9.35216 25.5915V25.5869H9.3545H23.7442H23.7489V25.5915C23.9611 25.5915 24.157 25.5026 24.3016 25.3613C24.4439 25.2223 24.5349 25.0286 24.5349 24.8213H24.5302V24.819V24.819Z" fill="#005B97"/>
</svg>
